<?xml version="1.0" encoding="utf-8"?>
<!-- Generator: Adobe Illustrator 16.0.0, SVG Export Plug-In . SVG Version: 6.00 Build 0)  -->
<!DOCTYPE svg PUBLIC "-//W3C//DTD SVG 1.1//EN" "http://www.w3.org/Graphics/SVG/1.1/DTD/svg11.dtd">
<svg version="1.1" id="Layer_1" xmlns="http://www.w3.org/2000/svg" xmlns:xlink="http://www.w3.org/1999/xlink" x="0px" y="0px"
	 width="150px" height="45px" viewBox="0 0 150 45" enable-background="new 0 0 150 45" xml:space="preserve">
<g>
	<path fill-rule="evenodd" clip-rule="evenodd" fill="#FFFFFF" d="M103.056,21.378c-0.439,0.633-0.9,1.252-1.314,1.9
		c-1.878,2.943-3.64,5.945-4.535,9.364c-0.089,0.342-0.15,0.696-0.171,1.049c-0.087,1.481-0.085,1.504-1.573,1.122
		c-0.881-0.227-2.004-0.215-1.885-1.667c-0.181,0.088-0.3,0.108-0.357,0.18c-1.168,1.432-2.492,1.542-4.145,0.767
		c-1.691-0.794-2.813-1.896-2.637-3.819c0.196-2.15,0.58-4.284,0.888-6.424c0.048-0.334,0.128-0.664,0.11-1.022
		c-2.755,3.636-4.076,7.887-5.209,12.161c-0.167,0.031-0.238,0.063-0.305,0.054c-2.933-0.426-3.215-0.62-2.98-3.531
		c0.204-2.542,0.732-5.059,1.121-7.586c0.042-0.274,0.103-0.547,0.07-0.858c-1.507,1.634-2.353,3.641-3.12,5.663
		c-0.777,2.05-1.396,4.159-2.132,6.385c-1.162-0.478-2.761-0.02-3.389-1.848c-1.217,1.651-2.653,1.917-4.478,1.035
		c-1.705-0.824-2.801-1.898-2.715-3.929c-0.475,1.203-0.883,2.438-1.458,3.592c-0.205,0.412-0.795,0.857-1.238,0.89
		c-1.902,0.141-3.738-0.048-4.76-2.063c-0.104,0.063-0.198,0.1-0.266,0.165c-2.337,2.229-2.111,2.071-5.078,0.819
		c-1.499-0.632-2.187-1.869-2.047-3.413c0.202-2.222,0.592-4.425,0.903-6.636c0.038-0.267,0.095-0.53,0.049-0.827
		c-2.716,3.611-4.058,7.813-5.156,12.04c-0.122,0.057-0.156,0.088-0.187,0.085c-2.961-0.277-3.455-0.591-3.059-3.473
		c0.596-4.32,1.524-8.598,2.408-12.873c0.408-1.979,1.051-3.908,1.575-5.863c0.131-0.486,0.215-0.985,0.32-1.479
		c0.601,0.172,1.203,0.339,1.801,0.52c0.169,0.051,0.328,0.136,0.487,0.214c1.742,0.843,1.814,1.021,1.29,2.853
		c-0.822,2.868-1.632,5.74-2.443,8.612c-0.075,0.266-0.123,0.54-0.222,0.979c1.277-1.768,2.39-3.431,3.631-4.992
		c1.653-2.081,1.271-2.176,4.053-0.706c0.867,0.458,1.079,1.024,0.698,1.996c-1.362,3.468-2.051,7.091-2.247,10.809
		c-0.015,0.282,0.002,0.567,0.021,0.85c0.014,0.203,0.058,0.404,0.112,0.761c1.963-1.073,3.1-2.614,3.394-4.696
		c0.41-2.911,1.034-5.744,2.613-8.268c1.631-2.604,5.26-2.982,7.44-0.815c0.065,0.064,0.077,0.185,0.119,0.295
		c-0.097,0.066-0.181,0.178-0.264,0.176c-2.125-0.036-3.166,1.347-3.974,3.028c-1.318,2.744-1.909,5.644-1.818,8.682
		c0.009,0.276,0.077,0.551,0.159,1.106c0.336-0.492,0.556-0.778,0.738-1.087c1.857-3.139,3.291-6.46,4.168-10.002
		c0.24-0.969,0.628-1.278,1.544-0.827c0.381,0.188,0.805,0.292,1.174,0.497c1.3,0.725,1.408,1.152,1.074,2.604
		c-0.503,2.179-0.963,4.37-1.336,6.573c-0.15,0.889-0.025,1.824-0.025,2.855c1.87-0.8,2.904-2.318,3.342-4.076
		c0.832-3.341,1.412-6.744,2.081-10.125c0.06-0.302,0.009-0.625,0.009-0.926c1.051-0.217,3.571,0.809,3.977,1.643
		c0.119,0.244,0.048,0.617-0.021,0.91c-0.299,1.266-0.629,2.523-0.966,3.854c1.433-1.979,2.771-3.893,4.181-5.752
		c0.959-1.266,1.164-1.272,2.59-0.586c0.383,0.186,0.749,0.407,1.123,0.612c0.748,0.409,0.903,0.972,0.609,1.784
		c-0.454,1.254-0.811,2.544-1.221,3.862c1.479-2.014,2.921-3.942,4.324-5.9c0.614-0.858,1.304-1.02,2.183-0.45
		c0.148,0.096,0.317,0.159,0.477,0.239c1.854,0.93,1.881,0.961,1.19,2.911c-1.171,3.308-1.816,6.718-2.029,10.213
		c-0.03,0.489,0.048,0.985,0.085,1.637c1.964-0.889,2.96-2.439,3.405-4.29c1.171-4.866,2.23-9.759,3.327-14.643
		c0.107-0.479,0.268-0.978,0.222-1.45c-0.069-0.72,0.23-0.82,0.799-0.664c0.239,0.065,0.467,0.172,0.697,0.263
		c2.855,1.117,2.928,1.296,2.095,4.174c-0.71,2.449-1.365,4.913-1.855,7.453c0.519-0.894,0.995-1.815,1.564-2.674
		c0.647-0.975,1.294-1.977,2.112-2.797c0.348-0.349,1.205-0.501,1.698-0.34c2.032,0.666,2.688,1.837,2.435,3.928
		c-0.35,2.88-1.043,5.666-2.385,8.253c-1.005,1.937-2.313,3.595-4.477,4.35c-0.921,0.321-2.737-1.244-2.543-2.194
		c0.031-0.151,0.175-0.313,0.312-0.403c3.036-1.999,4.055-5.187,4.958-8.432c0.206-0.74,0.288-1.515,0.428-2.274
		C103.166,21.433,103.111,21.405,103.056,21.378z"/>
	<path fill-rule="evenodd" clip-rule="evenodd" fill="#FFFFFF" d="M21.656,34.324c1.312,0.189,2.418,0.445,3.534,0.495
		c3.476,0.154,6.953,0.271,10.432,0.308c0.824,0.009,1.687-0.265,2.473-0.564c1.314-0.502,1.658-1.544,0.678-2.589
		c-1.076-1.146-2.387-2.095-3.682-3.01c-0.747-0.527-1.664-0.816-2.66-1.286c-0.223-1.352,2.027-3.28,3.559-2.713
		c2.617,0.971,5.153,5.132,4.809,7.892c-0.511,4.097-1.812,5.243-5.994,5.737c-3.941,0.465-7.809,0.02-11.685-0.549
		c-1.547-0.228-3.109-0.404-4.623-0.775c-0.558-0.136-1.269-0.677-1.434-1.188c-0.559-1.725-0.585-2.749,0.962-4.019
		c5.084-4.173,10.267-8.275,14.55-13.302c2.04-2.394,3.655-5.15,5.452-7.75c0.156-0.226,0.234-0.504,0.422-0.921
		c-3.637-0.333-7.139-0.666-10.191,1.696c-1.655,1.281-1.654,2.677-0.168,4.141c0.279,0.275,0.372,0.738,0.551,1.114
		c-0.4-0.011-0.836,0.076-1.197-0.049c-2.147-0.739-2.629-1.322-2.664-3.55c-0.02-1.27,0.176-2.545,0.31-3.814
		c0.153-1.451,1.038-2.27,2.387-2.68c2.597-0.79,5.254-0.877,7.917-0.58c1.726,0.192,3.436,0.56,5.14,0.908
		c2.696,0.552,3.414,2.17,2.095,4.612c-1.688,3.124-3.851,5.919-6.344,8.407c-4.405,4.393-8.953,8.643-13.443,12.95
		C22.512,33.562,22.167,33.859,21.656,34.324z"/>
	<path fill-rule="evenodd" clip-rule="evenodd" fill="#FFFFFF" d="M121.722,18.068c1.543,0.096,2.818,0.71,3.864,1.756
		c0.188,0.188,0.106,0.741,0.022,1.095c-0.306,1.268-0.666,2.522-1.015,3.813c1.319-1.868,2.567-3.712,3.908-5.486
		c0.423-0.56,1.211-1.405,1.624-1.301c1.089,0.277,2.076,0.983,3.068,1.577c0.125,0.075,0.107,0.526,0.037,0.769
		c-0.483,1.671-1.032,3.322-1.486,5c-0.169,0.625-0.443,0.843-1.048,0.682c-0.274-0.072-0.554-0.129-0.826-0.205
		c-2.204-0.619-2.281-0.738-1.969-2.916c-2.691,3.631-4.11,7.818-5.152,12.143c-2.602-0.125-3.212-0.537-3.364-2.377
		c-0.363,0.266-0.665,0.482-0.964,0.703c-2.181,1.609-4.614,1.965-7.194,1.353c-2.081-0.493-3.473-2.196-3.686-4.462
		c-0.382-4.049,0.877-7.594,3.551-10.604c2.088-2.349,6.308-1.735,7.744,1.091c0.705,1.387,0.303,2.719-0.591,3.892
		c-1.567,2.061-3.713,3.384-5.95,4.59c-0.428,0.23-1.086,0.612-1.093,0.938c-0.023,1.002,0.126,2.037,0.412,2.999
		c0.082,0.276,0.85,0.46,1.315,0.491c3.334,0.23,6.255-2.129,6.875-5.413c0.539-2.86,1.172-5.704,1.747-8.559
		C121.649,19.158,121.66,18.664,121.722,18.068z M111.767,27.189c0.078,0.087,0.156,0.175,0.234,0.263
		c1.435-1.14,2.923-2.219,4.276-3.446c0.573-0.52,0.954-1.315,1.241-2.055c0.133-0.341-0.051-0.96-0.315-1.244
		c-0.173-0.186-0.795-0.102-1.132,0.05c-0.471,0.212-0.914,0.55-1.282,0.921C113.254,23.225,112.405,25.153,111.767,27.189z"/>
</g>
</svg>
